<svg width="11467" height="2038" viewBox="0 0 11467 2038" fill="none" xmlns="http://www.w3.org/2000/svg">
<path d="M2366 15.8984H2713.93C2903.08 15.8984 3035.39 100.5 3035.39 263.187C3035.39 342.574 2997.06 423.266 2925.63 464.328V466.935C3034.08 500.046 3073.71 596.641 3073.71 679.94C3073.71 886.296 2901.77 961.642 2713.93 961.642H2366V15.8984ZM2716.53 382.333C2774.8 382.333 2799.96 339.967 2799.96 294.994C2799.96 250.021 2774.8 214.303 2712.62 214.303H2597.52V382.333H2716.53ZM2736.48 763.238C2803.87 763.238 2836.98 716.961 2836.98 664.036C2836.98 611.111 2805.31 567.441 2737.78 567.441H2597.52V763.238H2736.48Z" fill="white"/>
<path d="M3711.41 763.238H3416.41L3359.57 961.642H3121.41L3442.87 15.8984H3686.25L4007.71 961.642H3769.68L3711.41 763.238ZM3563.32 231.51C3563.32 231.51 3542.2 334.753 3524.87 394.196L3470.64 578H3657.05L3604.25 394.196C3587.05 334.623 3565.8 231.51 3565.8 231.51H3563.19H3563.32Z" fill="white"/>
<path d="M4113.7 15.8984H4347.83L4609.71 457.68C4646.74 519.861 4689.1 619.063 4689.1 619.063H4691.71C4691.71 619.063 4681.15 517.123 4681.15 457.68V15.8984H4912.54V961.642H4679.72L4416.53 521.164C4379.5 458.984 4337.14 359.782 4337.14 359.782H4334.53C4334.53 359.782 4345.09 461.591 4345.09 521.164V961.642H4113.57V15.8984H4113.7Z" fill="white"/>
<path d="M5566.14 0C5800.26 0 5920.71 133.616 5920.71 133.616L5813.55 308.165C5813.55 308.165 5707.7 211.57 5576.82 211.57C5395.63 211.57 5309.59 345.187 5309.59 481.41C5309.59 617.634 5402.15 765.851 5576.82 765.851C5719.7 765.851 5828.15 649.441 5828.15 649.441L5947.3 818.776C5947.3 818.776 5813.68 977.551 5566.27 977.551C5269.96 977.551 5070.26 767.284 5070.26 486.885C5070.26 206.486 5281.83 0 5566.14 0Z" fill="white"/>
<path d="M6512.27 0C6798.01 0 7006.97 211.701 7006.97 482.844C7006.97 753.988 6798.01 977.551 6512.27 977.551C6226.52 977.551 6017.56 760.636 6017.56 482.844C6017.56 205.052 6226.52 0 6512.27 0ZM6512.27 765.851C6653.83 765.851 6767.51 644.227 6767.51 482.844C6767.51 321.462 6653.83 211.701 6512.27 211.701C6370.7 211.701 6256.9 328.11 6256.9 482.844C6256.9 637.579 6370.7 765.851 6512.27 765.851Z" fill="white"/>
<path d="M2359.33 1076.36H2590.84V1454.66H2934.73V1076.36H3166.11V2022.1H2934.73V1651.76H2590.84V2022.1H2359.33V1076.36Z" fill="white"/>
<path d="M3620.16 1076.36H3388.65V2022.1H3620.16V1076.36Z" fill="white"/>
<path d="M3842.29 1076.37H4235.19C4418.99 1076.37 4543.35 1211.29 4543.35 1401.75C4543.35 1592.2 4418.99 1729.73 4235.19 1729.73H4073.81V2021.99H3842.29V1076.24V1076.37ZM4187.61 1531.32C4268.3 1531.32 4307.93 1477.09 4307.93 1401.75C4307.93 1326.4 4268.3 1274.78 4191.52 1274.78H4073.81V1531.32H4187.61Z" fill="white"/>
<path d="M5111.06 1060.45C5396.81 1060.45 5605.77 1272.15 5605.77 1543.29C5605.77 1814.44 5396.81 2038 5111.06 2038C4825.32 2038 4616.36 1821.09 4616.36 1543.29C4616.36 1265.5 4825.32 1060.45 5111.06 1060.45ZM5111.06 1826.3C5252.63 1826.3 5366.3 1704.68 5366.3 1543.29C5366.3 1381.91 5252.63 1272.15 5111.06 1272.15C4969.49 1272.15 4855.82 1388.56 4855.82 1543.29C4855.82 1698.03 4969.62 1826.3 5111.06 1826.3Z" fill="white"/>
<path d="M5944.55 1274.76H5657.5V1076.36H6463.11V1274.76H6176.07V2022.1H5944.55V1274.76Z" fill="white"/>
<path d="M6579.66 1076.36H7172.26V1274.76H6811.17V1446.71H7099.52V1645.11H6811.17V1823.7H7190.77V2022.1H6579.66V1076.36Z" fill="white"/>
<path d="M7788.87 1060.45C8022.99 1060.45 8143.44 1194.07 8143.44 1194.07L8036.29 1368.61C8036.29 1368.61 7930.44 1272.02 7799.56 1272.02C7618.36 1272.02 7532.32 1405.64 7532.32 1541.86C7532.32 1678.08 7624.88 1826.3 7799.56 1826.3C7942.43 1826.3 8050.89 1709.89 8050.89 1709.89L8170.03 1879.23C8170.03 1879.23 8036.42 2038 7789 2038C7492.7 2038 7292.99 1827.73 7292.99 1547.33C7292.99 1266.94 7504.56 1060.58 7789 1060.58" fill="white"/>
<path d="M8783.75 1823.7H8488.75L8431.92 2022.1H8193.88L8515.34 1076.36H8758.72L9080.18 2022.1H8842.15L8783.88 1823.7H8783.75ZM8635.66 1291.97C8635.66 1291.97 8614.55 1395.21 8597.21 1454.66L8542.98 1638.46H8729.39L8676.6 1454.66C8659.39 1395.08 8638.14 1291.97 8638.14 1291.97H8635.53H8635.66Z" fill="white"/>
<path d="M9185.89 1076.36H9515.31C9611.9 1076.36 9658.18 1083.01 9699.11 1098.91C9806.26 1139.97 9873.79 1236.44 9873.79 1374.1C9873.79 1474.6 9826.21 1584.36 9732.22 1632.07V1634.68C9732.22 1634.68 9745.52 1651.89 9767.94 1691.52L9951.74 2022.23H9693.77L9525.73 1703.38H9417.28V2022.23H9185.76V1076.49L9185.89 1076.36ZM9517.91 1504.98C9591.96 1504.98 9638.23 1463.91 9638.23 1388.57C9638.23 1317.13 9611.77 1274.76 9495.36 1274.76H9417.28V1504.98H9517.78H9517.91Z" fill="white"/>
<path d="M10319.7 1076.36H10088.2V2022.1H10319.7V1076.36Z" fill="white"/>
<path d="M10972.1 1060.45C11257.8 1060.45 11466.8 1272.15 11466.8 1543.29C11466.8 1814.44 11257.8 2038 10972.1 2038C10686.3 2038 10477.3 1821.09 10477.3 1543.29C10477.3 1265.5 10686.3 1060.45 10972.1 1060.45ZM10972.1 1826.3C11113.6 1826.3 11227.3 1704.68 11227.3 1543.29C11227.3 1381.91 11113.6 1272.15 10972.1 1272.15C10830.5 1272.15 10716.7 1388.56 10716.7 1543.29C10716.7 1698.03 10830.5 1826.3 10972.1 1826.3Z" fill="white"/>
<path d="M623.5 19.6738H0V2024.96H623.5V19.6738Z" fill="#FFD100"/>
<path d="M1884.32 19.6738H1260.69V2024.96H1884.32V19.6738Z" fill="#FFD100"/>
</svg>
